#!OML:ASF H:\ManfredETheater\Project 1\Capture day 1\Session 1\subject.ASF
:FULLY-SPECIFIED
:DEGREES
1211
root 2.79791 16.5075 -5.75141 15.6379 5.9595 4.73339
lowerback 20.4459 0.355527 -2.60258
upperback 0.601392 -0.00399603 1.14732
thorax -10.8383 0.172374 2.7576
lowerneck -18.1696 -4.87173 -5.11233
upperneck 9.26089 -5.98212 4.93178
head 6.05565 -2.69703 1.76953
rclavicle 4.37326e-015 -1.66979e-014
rhumerus -29.4457 -0.789874 -63.653
rradius 61.5943
rwrist -8.56622
rhand -17.3247 -11.7689
rfingers 7.12502
rthumb 8.92204 -41.5602
lclavicle 4.37326e-015 -1.66979e-014
lhumerus -31.6285 -3.82444 78.6626
lradius 75.9945
lwrist -11.4014
lhand -22.0261 6.57839
lfingers 7.12502
lthumb 4.38353 36.513
rfemur -49.6771 -18.3928 22.4006
rtibia 65.8056
rfoot -30.7825 -6.20397
rtoes 2.09887
lfemur -50.6093 6.71264 -22.6707
ltibia 64.3309
lfoot -22.9149 -4.68427
ltoes -10.6355
1212
root 2.81929 16.3863 -5.79321 15.991 5.92869 4.61884
lowerback 21.0524 0.420484 -2.49824
upperback 0.799146 0.0955587 1.16343
thorax -10.9604 0.214181 2.69038
lowerneck -18.1821 -4.94021 -5.17409
upperneck 8.32343 -6.0473 5.11411
head 5.76973 -2.72322 1.83668
rclavicle -1.19271e-015 5.56597e-015
rhumerus -29.454 -0.243589 -63.8579
rradius 62.4297
rwrist -8.7253
rhand -17.4151 -11.3363
rfingers 7.12502
rthumb 8.83483 -41.1313
lclavicle -1.19271e-015 5.56597e-015
lhumerus -31.6172 -4.5873 79.3594
lradius 77.0337
lwrist -11.7103
lhand -22.5282 6.11853
lfingers 7.12502
lthumb 3.8987 36.0626
rfemur -51.3222 -18.8015 22.7868
rtibia 67.5553
rfoot -30.9867 -5.76473
rtoes 1.98789
lfemur -51.8266 7.33092 -23.0044
ltibia 65.5278
lfoot -24.0074 -4.61566
ltoes -10.2604
1213
root 2.83923 16.2619 -5.83287 16.3116 5.93286 4.46696
lowerback 21.6611 0.468003 -2.36468
upperback 1.0028 0.182347 1.19582
thorax -11.0739 0.248654 2.62707
lowerneck -18.1712 -4.99533 -5.22417
upperneck 7.38106 -6.09356 5.27518
head 5.47807 -2.74256 1.89802
rclavicle 2.62396e-014 1.35174e-014
rhumerus -29.4516 0.316443 -64.0649
rradius 63.2963
rwrist -8.79114
rhand -17.5028 -10.8393
rfingers 7.12502
rthumb 8.75019 -40.6379
lclavicle 2.62396e-014 1.35174e-014
lhumerus -31.6596 -5.25908 80.0369
lradius 78.0979
lwrist -12.0144
lhand -22.9548 5.59469
lfingers 7.12502
lthumb 3.4867 35.5459
rfemur -52.926 -19.2246 23.2265
rtibia 69.3105
rfoot -31.2212 -5.3602
rtoes 1.82643
lfemur -53.1359 7.93072 -23.282
ltibia 66.8867
lfoot -24.9332 -4.62714
ltoes -9.905
1214
root 2.85771 16.1336 -5.87033 16.5915 5.98404 4.27686
lowerback 22.2744 0.491952 -2.1977
upperback 1.21538 0.250399 1.24747
thorax -11.1762 0.272916 2.5708
lowerneck -18.1393 -5.03491 -5.26161
upperneck 6.43391 -6.11846 5.41342
head 5.18082 -2.75377 1.95313
rclavicle -8.74653e-015 -1.74931e-014
rhumerus -29.4237 0.871371 -64.2716
rradius 64.1706
rwrist -8.74686
rhand -17.5843 -10.2995
rfingers 7.12502
rthumb 8.6715 -40.1014
lclavicle -8.74653e-015 -1.74931e-014
lhumerus -31.7465 -5.81242 80.6912
lradius 79.1711
lwrist -12.3222
lhand -23.3266 5.07014
lfingers 7.12502
lthumb 3.12771 35.0269
rfemur -54.4839 -19.6716 23.7192
rtibia 71.0794
rfoot -31.4808 -4.98286
rtoes 1.63407
lfemur -54.5237 8.48873 -23.4862
ltibia 68.4068
lfoot -25.6933 -4.73825
ltoes -9.5474
1215
root 2.87473 16.0008 -5.90562 16.8236 6.08865 4.05225
lowerback 22.8938 0.489415 -1.99899
upperback 1.43951 0.29637 1.31926
thorax -11.265 0.285605 2.52507
lowerneck -18.0886 -5.05831 -5.28596
upperneck 5.48259 -6.12178 5.52967
head 4.87848 -2.75645 2.00216
rclavicle 7.95139e-016 -4.77083e-015
rhumerus -29.3594 1.40372 -64.475
rradius 65.0301
rwrist -8.58149
rhand -17.6568 -9.7447
rfingers 7.12502
rthumb 8.60156 -39.5495
lclavicle 7.95139e-016 -4.77083e-015
lhumerus -31.8665 -6.22805 81.3174
lradius 80.2334
lwrist -12.6446
lhand -23.6772 4.59805
lfingers 7.12502
lthumb 2.78909 34.5596
rfemur -55.9956 -20.1488 24.2584
rtibia 72.8728
rfoot -31.7559 -4.62456
rtoes 1.4347
lfemur -55.9722 8.99115 -23.6106
ltibia 70.078
lfoot -26.2984 -4.95827
ltoes -9.15785
1216
root 2.89037 15.8628 -5.93874 17.0035 6.24637 3.80208
lowerback 23.5188 0.460911 -1.77667
upperback 1.67671 0.319394 1.40924
thorax -11.338 0.286786 2.49319
lowerneck -18.0214 -5.06626 -5.29692
upperneck 4.52927 -6.10531 5.62631
head 4.57226 -2.7511 2.04553
rclavicle -1.31198e-014 -1.27222e-014
rhumerus -29.2523 1.89801 -64.6718
rradius 65.8539
rwrist -8.29121
rhand -17.7202 -9.20215
rfingers 7.12502
rthumb 8.54032 -39.0094
lclavicle -1.31198e-014 -1.27222e-014
lhumerus -32.0059 -6.49523 81.9094
lradius 81.263
lwrist -12.9858
lhand -24.0425 4.21594
lfingers 7.12502
lthumb 2.43635 34.1818
rfemur -57.4654 -20.6598 24.8315
rtibia 74.702
rfoot -32.0349 -4.27978
rtoes 1.24714
lfemur -57.4606 9.43395 -23.662
ltibia 71.8802
lfoot -26.7678 -5.28181
ltoes -8.7127
1217
root 2.9048 15.7193 -5.96968 17.1299 6.4492 3.54138
lowerback 24.1467 0.410676 -1.54567
upperback 1.92719 0.321034 1.51226
thorax -11.3938 0.277909 2.47796
lowerneck -17.9407 -5.06112 -5.29543
upperneck 3.57846 -6.07285 5.70769
head 4.26436 -2.73911 2.08422
rclavicle -9.93923e-015 -1.59028e-014
rhumerus -29.1012 2.33995 -64.8588
rradius 66.6242
rwrist -7.87909
rhand -17.7781 -8.69605
rfingers 7.12502
rthumb 8.48453 -38.5056
lclavicle -9.93923e-015 -1.59028e-014
lhumerus -32.1498 -6.61096 82.4604
lradius 82.2372
lwrist -13.3366
lhand -24.4494 3.94231
lfingers 7.12502
lthumb 2.04332 33.9123
rfemur -58.9003 -21.2049 25.4187
rtibia 76.5776
rfoot -32.3068 -3.94552
rtoes 1.0779
lfemur -58.9656 9.82142 -23.6621
ltibia 73.7846
lfoot -27.1286 -5.6864
ltoes -8.20377
1218
root 2.91827 15.5701 -5.99837 17.2046 6.68258 3.2887
lowerback 24.7745 0.345806 -1.32457
upperback 2.18958 0.304829 1.62061
thorax -11.4324 0.261428 2.48067
lowerneck -17.8486 -5.04636 -5.28265
upperneck 2.63637 -6.02953 5.77812
head 3.95748 -2.7226 2.11909
rclavicle 1.23246e-014 6.36111e-015
rhumerus -28.9104 2.71693 -65.0336
rradius 67.3275
rwrist -7.35623
rhand -17.8377 -8.24525
rfingers 7.12502
rthumb 8.42692 -38.0571
lclavicle 1.23246e-014 6.36111e-015
lhumerus -32.2837 -6.57878 82.9633
lradius 83.1361
lwrist -13.6701
lhand -24.909 3.77901
lfingers 7.12502
lthumb 1.59941 33.7528
rfemur -60.3082 -21.781 25.9955
rtibia 78.5063
rfoot -32.5621 -3.62042
rtoes 0.919138
lfemur -60.4628 10.1632 -23.6419
ltibia 75.7581
lfoot -27.4128 -6.13567
ltoes -7.63825
1219
root 2.93112 15.4155 -6.02468 17.2309 6.9275 3.06344
lowerback 25.3994 0.27515 -1.13237
upperback 2.46108 0.275761 1.72517
thorax -11.4555 0.240392 2.50064
lowerneck -17.7474 -5.02599 -5.26135
upperneck 1.71166 -5.98081 5.84208
head 3.6551 -2.70393 2.15128
rclavicle -6.75868e-015 1.35174e-014
rhumerus -28.6889 3.01803 -65.1945
rradius 67.9548
rwrist -6.74264
rhand -17.909 -7.85989
rfingers 7.12502
rthumb 8.35816 -37.6745
lclavicle -6.75868e-015 1.35174e-014
lhumerus -32.3947 -6.40762 83.4114
lradius 83.944
lwrist -13.9438
lhand -25.4134 3.72001
lfingers 7.12502
lthumb 1.11226 33.6969
rfemur -61.6947 -22.3813 26.5347
rtibia 80.4908
rfoot -32.7938 -3.30285
rtoes 0.752626
lfemur -61.9274 10.4712 -23.6361
ltibia 77.768
lfoot -27.6562 -6.58551
ltoes -7.03711
1220
root 2.9437 15.2563 -6.04844 17.2123 7.16358 2.8807
lowerback 26.0204 0.207683 -0.983279
upperback 2.73788 0.239833 1.81726
thorax -11.4675 0.218042 2.53441
lowerneck -17.6368 -5.00387 -5.23466
upperneck 0.812565 -5.93178 5.90304
head 3.36015 -2.68539 2.18176
rclavicle -7.95139e-015 1.74931e-014
rhumerus -28.4499 3.23505 -65.3411
rradius 68.502
rwrist -6.06702
rhand -18.0004 -7.54539
rfingers 7.12502
rthumb 8.26998 -37.3635
lclavicle -7.95139e-015 1.74931e-014
lhumerus -32.4736 -6.11032 83.7989
lradius 84.6512
lwrist -14.1069
lhand -25.9413 3.75499
lfingers 7.12502
lthumb 0.602486 33.7339
rfemur -63.0597 -22.9951 27.0117
rtibia 82.5152
rfoot -32.9841 -2.98912
rtoes 0.553197
lfemur -63.3337 10.7573 -23.6734
ltibia 79.7712
lfoot -27.8823 -6.99358
ltoes -6.42847
1221
root 2.95634 15.0932 -6.06955 17.1514 7.37217 2.74988
lowerback 26.6395 0.1512 -0.885435
upperback 3.01546 0.203098 1.88984
thorax -11.4745 0.197353 2.5767
lowerneck -17.5153 -4.98306 -5.20599
upperneck -0.0533878 -5.88627 5.96265
head 3.07491 -2.66881 2.2112
rclavicle -5.1684e-015 -1.27222e-014
rhumerus -28.209 3.36313 -65.4742
rradius 68.9699
rwrist -5.36635
rhand -18.1167 -7.30129
rfingers 7.12502
rthumb 8.15766 -37.1238
lclavicle -5.1684e-015 -1.27222e-014
lhumerus -32.5158 -5.7024 84.1216
lradius 85.255
lwrist -14.1114
lhand -26.4662 3.87327
lfingers 7.12502
lthumb 0.095472 33.853
rfemur -64.4035 -23.6092 27.4065
rtibia 84.5898
rfoot -33.1427 -2.67639
rtoes 0.295746
lfemur -64.6646 11.0315 -23.7727
ltibia 81.7627
lfoot -28.1363 -7.31956
ltoes -5.83958
1222
root 2.96881 14.9377 -6.08877 17.049 7.53899 2.67153
lowerback 27.2607 0.110985 -0.837927
upperback 3.28935 0.171155 1.93885
thorax -11.4839 0.180725 2.62041
lowerneck -17.3805 -4.96539 -5.17982
upperneck -0.879658 -5.84616 6.02237
head 2.80121 -2.65508 2.24055
rclavicle 4.77083e-015 1.59028e-014
rhumerus -27.982 3.40221 -65.5955
rradius 69.3625
rwrist -4.68191
rhand -18.2579 -7.12492
rfingers 7.12502
rthumb 8.02146 -36.9527
lclavicle 4.77083e-015 1.59028e-014
lhumerus -32.5221 -5.20074 84.3767
lradius 85.7594
lwrist -13.9239
lhand -26.9662 4.06485
lfingers 7.12502
lthumb -0.387424 34.0442
rfemur -65.6654 -24.207 27.7087
rtibia 86.6503
rfoot -33.2649 -2.36211
rtoes -0.0388879
lfemur -65.8492 11.3008 -23.9388
ltibia 83.6744
lfoot -28.4438 -7.53516
ltoes -5.29096
1223
root 2.98236 14.7685 -6.10447 16.9053 7.65639 2.63828
lowerback 27.888 0.0891529 -0.831946
upperback 3.55518 0.148269 1.96353
thorax -11.5031 0.169685 2.65796
lowerneck -16.9896 -4.95288 -5.23864
upperneck -2.03746 -5.80635 5.96578
head 2.70125 -2.66055 2.4772
rclavicle 6.75868e-015 -2.94201e-014
rhumerus -27.7841 3.35653 -65.7072
rradius 69.6879
rwrist -4.0559
rhand -18.4172 -7.01402
rfingers 7.12502
rthumb 7.86769 -36.8476
lclavicle 6.75868e-015 -2.94201e-014
lhumerus -32.4981 -4.62302 84.563
lradius 86.1745
lwrist -13.5343
lhand -27.4291 4.32022
lfingers 7.12502
lthumb -0.834551 34.2983
rfemur -66.9505 -24.7781 27.9138
rtibia 88.8013
rfoot -33.3496 -2.03805
rtoes -0.461288
lfemur -66.9947 11.5722 -24.1617
ltibia 85.6124
lfoot -28.8155 -7.62978
ltoes -4.79176
